<?xml version="1.0" encoding="UTF-8"?>
<svg width="16px" height="9px" viewBox="0 0 16 9" version="1.1" xmlns="http://www.w3.org/2000/svg" xmlns:xlink="http://www.w3.org/1999/xlink">
    <!-- Generator: Sketch 51.2 (57519) - http://www.bohemiancoding.com/sketch -->
    <title>Glyphs/Arrow</title>
    <desc>Created with Sketch.</desc>
    <defs></defs>
    <g id="Symbols" stroke="none" stroke-width="1" fill="none" fill-rule="evenodd">
        <g id="button/top" transform="translate(-12.000000, -16.000000)" fill="#FFFFFF">
            <g id="Glyphs/Arrow" transform="translate(20.000000, 20.500000) rotate(-90.000000) translate(-20.000000, -20.500000) translate(16.000000, 13.000000)">
                <path d="M0.510018215,15 C0.442015446,15 0.376442332,14.9877812 0.313296903,14.9633431 C0.250151475,14.9389051 0.194292896,14.9022485 0.14571949,14.8533724 C0.0485726776,14.7556202 0,14.6383194 0,14.5014663 C0,14.3646132 0.0485726776,14.2473123 0.14571949,14.1495601 L6.80510018,7.44868035 L0.247723133,0.865102639 C0.150576321,0.76735044 0.102003643,0.647605792 0.102003643,0.505865103 C0.102003643,0.364124413 0.150576321,0.244379765 0.247723133,0.146627566 C0.344869945,0.0488753666 0.463873005,0 0.604735883,0 C0.745598761,0 0.864601821,0.0488753666 0.961748634,0.146627566 L7.85428051,7.09677419 C7.95142732,7.19452639 8,7.31182727 8,7.44868035 C8,7.58553343 7.95142732,7.70283431 7.85428051,7.80058651 L0.859744991,14.8533724 C0.811171585,14.9022485 0.755313005,14.9389051 0.692167577,14.9633431 C0.629022149,14.9877812 0.568306302,15 0.510018215,15 Z" id="Arrow-right---simple-line-icons"></path>
            </g>
        </g>
    </g>
</svg>