<?xml version="1.0" encoding="UTF-8"?>
<svg width="8px" height="15px" viewBox="0 0 8 15" version="1.1" xmlns="http://www.w3.org/2000/svg" xmlns:xlink="http://www.w3.org/1999/xlink">
    <!-- Generator: Sketch 51.2 (57519) - http://www.bohemiancoding.com/sketch -->
    <title>Arrow-right - simple-line-icons</title>
    <desc>Created with Sketch.</desc>
    <defs></defs>
    <g id="Desktop" stroke="none" stroke-width="1" fill="none" fill-rule="evenodd">
        <g id="remark/2.3.2-進階搜尋(結果)-地圖選單" transform="translate(-1013.000000, -472.000000)" fill="#FFFFFF">
            <g id="Group-14" transform="translate(1000.000000, 461.000000)">
                <g id="Group-4">
                    <path d="M13.5100182,26 C13.4420154,26 13.3764423,25.9877812 13.3132969,25.9633431 C13.2501515,25.9389051 13.1942929,25.9022485 13.1457195,25.8533724 C13.0485727,25.7556202 13,25.6383194 13,25.5014663 C13,25.3646132 13.0485727,25.2473123 13.1457195,25.1495601 L19.8051002,18.4486804 L13.2477231,11.8651026 C13.1505763,11.7673504 13.1020036,11.6476058 13.1020036,11.5058651 C13.1020036,11.3641244 13.1505763,11.2443798 13.2477231,11.1466276 C13.3448699,11.0488754 13.463873,11 13.6047359,11 C13.7455988,11 13.8646018,11.0488754 13.9617486,11.1466276 L20.8542805,18.0967742 C20.9514273,18.1945264 21,18.3118273 21,18.4486804 C21,18.5855334 20.9514273,18.7028343 20.8542805,18.8005865 L13.859745,25.8533724 C13.8111716,25.9022485 13.755313,25.9389051 13.6921676,25.9633431 C13.6290221,25.9877812 13.5683063,26 13.5100182,26 Z" id="Arrow-right---simple-line-icons" transform="translate(17.000000, 18.500000) scale(-1, 1) translate(-17.000000, -18.500000) "></path>
                </g>
            </g>
        </g>
    </g>
</svg>