<?xml version="1.0" encoding="UTF-8"?>
<svg width="8px" height="14px" viewBox="0 0 8 14" version="1.1" xmlns="http://www.w3.org/2000/svg" xmlns:xlink="http://www.w3.org/1999/xlink">
    <!-- Generator: Sketch 50 (54983) - http://www.bohemiancoding.com/sketch -->
    <title>Shape</title>
    <desc>Created with Sketch.</desc>
    <defs></defs>
    <g id="Desktop" stroke="none" stroke-width="1" fill="none" fill-rule="evenodd">
        <g id="remark/2.3.1-進階搜尋(結果)" transform="translate(-677.000000, -1097.000000)" fill="#FFFFFF" fill-rule="nonzero">
            <g id="Group-6" transform="translate(648.000000, 1084.000000)">
                <g id="Group-5" transform="translate(29.000000, 9.000000)">
                    <path d="M7.71217089,11.693072 L1.67769864,17.7126627 C1.29383331,18.0957791 0.671461489,18.0957791 0.287782521,17.7126627 C-0.0959275069,17.3298871 -0.0959275069,16.7090619 0.287782521,16.3263173 L5.62735883,10.9998993 L0.287937819,5.67366719 C-0.0957722091,5.29073669 -0.0957722091,4.66997346 0.287937819,4.28719788 C0.671647847,3.90426737 1.29398861,3.90426737 1.67785394,4.28719788 L7.71232619,10.3068815 C7.9041812,10.4983623 8,10.7490533 8,10.9998683 C8,11.2508072 7.90399484,11.5016842 7.71217089,11.693072 Z" id="Shape" transform="translate(4.000000, 11.000000) scale(-1, 1) translate(-4.000000, -11.000000) "></path>
                </g>
            </g>
        </g>
    </g>
</svg>