<?xml version="1.0" encoding="UTF-8"?>
<svg width="22px" height="22px" viewBox="0 0 22 22" version="1.1" xmlns="http://www.w3.org/2000/svg" xmlns:xlink="http://www.w3.org/1999/xlink">
    <!-- Generator: Sketch 51.2 (57519) - http://www.bohemiancoding.com/sketch -->
    <title>button/return</title>
    <desc>Created with Sketch.</desc>
    <defs></defs>
    <g id="Desktop" stroke="none" stroke-width="1" fill="none" fill-rule="evenodd" fill-opacity="0.678611866">
        <g id="remark/2.1-房屋鑑價" transform="translate(-597.000000, -562.000000)" fill="#A17D58">
            <g id="button/return" transform="translate(597.000000, 562.000000)">
                <g id="return">
                    <path d="M19.0157917,0.993208333 C18.5097917,0.993208333 18.099125,1.403875 18.099125,1.909875 L18.099125,2.67391667 C16.130125,0.957 13.6189167,0 10.9427083,0 C4.90875,0 0,4.926625 0,10.9816667 C0,11.4876667 0.410666667,11.8983333 0.916666667,11.8983333 C1.42266667,11.8983333 1.83333333,11.4876667 1.83333333,10.9816667 C1.83333333,5.93725 5.91983333,1.83333333 10.9427083,1.83333333 C13.1459167,1.83333333 15.21575,2.61341667 16.8474167,4.01454167 L16.0072917,4.01454167 C15.5012917,4.01454167 15.090625,4.42520833 15.090625,4.93120833 C15.090625,5.43720833 15.5012917,5.847875 16.0072917,5.847875 L19.0157917,5.847875 C19.5217917,5.847875 19.9324583,5.43720833 19.9324583,4.93120833 L19.9324583,1.909875 C19.9324583,1.403875 19.5217917,0.993208333 19.0157917,0.993208333 Z" id="Shape" fill-rule="nonzero"></path>
                    <path d="M21.0833333,10.1016667 C20.5773333,10.1016667 20.1666667,10.5123333 20.1666667,11.0183333 C20.1666667,16.06275 16.0801667,20.1666667 11.0572917,20.1666667 C8.87975,20.1666667 6.83191667,19.4058333 5.20941667,18.0354167 L6.089875,18.0354167 C6.595875,18.0354167 7.00654167,17.62475 7.00654167,17.11875 C7.00654167,16.61275 6.595875,16.2020833 6.089875,16.2020833 L3.08091667,16.2020833 C3.07266667,16.2020833 3.06533333,16.204375 3.05754167,16.204375 C3.02270833,16.2052917 2.98833333,16.209875 2.9535,16.2149167 C2.92783333,16.2185833 2.90216667,16.220875 2.87695833,16.2268333 C2.84670833,16.2337083 2.81691667,16.2447083 2.787125,16.2547917 C2.759625,16.2644167 2.73166667,16.2726667 2.70508333,16.2845833 C2.679875,16.2960417 2.65604167,16.3107083 2.63175,16.3244583 C2.602875,16.3409583 2.57445833,16.357 2.54741667,16.37625 C2.54054167,16.3812917 2.53275,16.3840417 2.525875,16.3895417 C2.51029167,16.4014583 2.498375,16.416125 2.48370833,16.4289583 C2.45941667,16.4500417 2.435125,16.471125 2.413125,16.4949583 C2.3925,16.5169583 2.374625,16.539875 2.35675,16.56325 C2.338875,16.586625 2.32145833,16.61 2.30541667,16.63475 C2.289375,16.6604167 2.275625,16.687 2.26233333,16.7135833 C2.24904167,16.7397083 2.23666667,16.7662917 2.226125,16.7937917 C2.21558333,16.8222083 2.20733333,16.850625 2.19954167,16.8799583 C2.19220833,16.9079167 2.18441667,16.935875 2.17983333,16.96475 C2.17433333,16.9972917 2.17204167,17.0298333 2.16975,17.0628333 C2.168375,17.081625 2.16425,17.0999583 2.16425,17.1192083 L2.16425,20.1405417 C2.16425,20.6465417 2.57491667,21.0572083 3.08091667,21.0572083 C3.58691667,21.0572083 3.99758333,20.6465417 3.99758333,20.1405417 L3.99758333,19.4117917 C5.95145833,21.0750833 8.42508333,22 11.0572917,22 C17.09125,22 22,17.073375 22,11.0183333 C22,10.5123333 21.5893333,10.1016667 21.0833333,10.1016667 Z" id="Shape" fill-rule="nonzero"></path>
                </g>
            </g>
        </g>
    </g>
</svg>