<?xml version="1.0" encoding="UTF-8"?>
<svg width="30px" height="29px" viewBox="0 0 30 29" version="1.1" xmlns="http://www.w3.org/2000/svg" xmlns:xlink="http://www.w3.org/1999/xlink">
    <!-- Generator: Sketch 51.2 (57519) - http://www.bohemiancoding.com/sketch -->
    <title>Shape</title>
    <desc>Created with Sketch.</desc>
    <defs></defs>
    <g id="Desktop" stroke="none" stroke-width="1" fill="none" fill-rule="evenodd">
        <g id="remark/2.4.2填寫問卷" transform="translate(-707.000000, -478.000000)" fill="#B65138" fill-rule="nonzero">
            <g id="Group-2" transform="translate(466.000000, 258.000000)">
                <g id="Stacked-Group" transform="translate(165.000000, 220.000000)">
                    <path d="M105.348938,13.1427859 L100.093187,18.3122575 C99.8691166,18.5328798 99.7663924,18.8498728 99.8192563,19.1608048 L101.060356,26.4595241 C101.199724,27.2795845 100.872329,28.0923716 100.204922,28.5821046 C99.8276665,28.8590947 99.3855322,28.999105 98.9415958,28.999105 C98.5997828,28.999105 98.2561676,28.9160686 97.9389844,28.7475714 L91.4421342,25.301257 C91.1651996,25.1545795 90.8348004,25.1545795 90.5578658,25.301257 L84.0616163,28.7475714 C83.330533,29.1360848 82.4624841,29.0724438 81.7956784,28.5821046 C81.128272,28.0923716 80.8008764,27.2795845 80.9402448,26.4595241 L82.1807437,19.1601987 C82.2336076,18.8498728 82.1308834,18.5322737 81.9068127,18.3116514 L76.6510622,13.1427859 C76.0605486,12.5621371 75.8520968,11.7099532 76.1068045,10.9177736 C76.362113,10.1255941 77.0271166,9.56009789 77.843503,9.44069516 L85.1074801,8.37516215 C85.4168539,8.32970426 85.6847776,8.13393227 85.8229446,7.85088112 L89.0710693,1.20978605 C89.4357099,0.463670506 90.1758041,0 91,0 C91.8247966,0 92.5648909,0.463670506 92.9295315,1.20978605 L96.1770554,7.85088112 C96.3152224,8.13393227 96.5825454,8.32970426 96.8919192,8.37516215 L104.155896,9.44008905 C104.972883,9.56009789 105.637887,10.1255941 105.893195,10.9177736 C106.147903,11.7099532 105.939451,12.5621371 105.348938,13.1427859 Z" id="Shape"></path>
                </g>
            </g>
        </g>
    </g>
</svg>