<?xml version="1.0" encoding="UTF-8"?>
<svg width="30px" height="29px" viewBox="0 0 30 29" version="1.1" xmlns="http://www.w3.org/2000/svg" xmlns:xlink="http://www.w3.org/1999/xlink">
    <!-- Generator: Sketch 51.2 (57519) - http://www.bohemiancoding.com/sketch -->
    <title>Shape</title>
    <desc>Created with Sketch.</desc>
    <defs></defs>
    <g id="Desktop" stroke="none" stroke-width="1" fill="none" fill-rule="evenodd">
        <g id="remark/2.4.2填寫問卷" transform="translate(-745.000000, -478.000000)" fill="#E6E6E6" fill-rule="nonzero">
            <g id="Group-2" transform="translate(466.000000, 258.000000)">
                <g id="Stacked-Group" transform="translate(165.000000, 220.000000)">
                    <path d="M143.348938,13.1427859 C143.939451,12.5621371 144.147903,11.7099532 143.893195,10.9177736 C143.637887,10.1255941 142.972883,9.56009789 142.155896,9.44008905 L134.891919,8.37516215 C134.582545,8.32970426 134.315222,8.13393227 134.177055,7.85088112 L130.929531,1.20978605 C130.564891,0.463670506 129.824797,0 129,0 C128.175804,0 127.43571,0.463670506 127.071069,1.20978605 L123.822945,7.85088112 C123.684778,8.13393227 123.416854,8.32970426 123.10748,8.37516215 L115.843503,9.44069516 C115.027117,9.56009789 114.362113,10.1255941 114.106805,10.9177736 C113.852097,11.7099532 114.060549,12.5621371 114.651062,13.1427859 L119.906813,18.3116514 C120.130883,18.5322737 120.233608,18.8498728 120.180744,19.1601987 L118.940245,26.4595241 C118.800876,27.2795845 119.128272,28.0923716 119.795678,28.5821046 C120.462484,29.0724438 121.330533,29.1360848 122.061616,28.7475714 L128.557866,25.301257 C128.8348,25.1545795 129.1652,25.1545795 129.442134,25.301257 L135.938984,28.7475714 C136.256168,28.9160686 136.599783,28.999105 136.941596,28.999105 C137.385532,28.999105 137.827666,28.8590947 138.204922,28.5821046 C138.872329,28.0923716 139.199724,27.2795845 139.060356,26.4595241 L137.819256,19.1608048 C137.766392,18.8498728 137.869117,18.5328798 138.093187,18.3122575 L143.348938,13.1427859 Z M136.635826,19.3656684 L137.876325,26.6643877 C137.938801,27.0316874 137.79763,27.3826224 137.498469,27.6020325 C137.198707,27.8208364 136.825656,27.8475051 136.49826,27.6753712 L130.00141,24.2284507 C129.688432,24.062984 129.343615,23.9793415 129,23.9793415 C128.656385,23.9793415 128.312169,24.062984 127.99859,24.2290568 L121.502941,27.6753712 C121.174344,27.8475051 120.801293,27.8208364 120.502132,27.6020325 C120.202971,27.3826224 120.062401,27.0322935 120.124275,26.6643877 L121.364774,19.3656684 C121.484319,18.6613741 121.253039,17.9425333 120.746027,17.4443148 L115.489675,12.2748432 C115.224755,12.014218 115.134646,11.6469182 115.249385,11.2923467 C115.363523,10.937169 115.650069,10.6935147 116.015911,10.6395713 L123.279288,9.57464442 C123.980335,9.47221263 124.586467,9.0285436 124.899445,8.38728426 L128.14757,1.74618919 C128.310967,1.4116191 128.629953,1.21221047 128.999399,1.21221047 C129.369446,1.21221047 129.687831,1.4116191 129.851829,1.74618919 L133.099954,8.38728426 C133.412932,9.0285436 134.018464,9.47221263 134.719511,9.57464442 L141.983488,10.6395713 C142.34933,10.6935147 142.635876,10.937169 142.750014,11.2923467 C142.864152,11.6469182 142.774644,12.014218 142.509724,12.2748432 L137.253973,17.4437087 C136.746961,17.9425333 136.515681,18.660768 136.635826,19.3656684 Z" id="Shape"></path>
                </g>
            </g>
        </g>
    </g>
</svg>