<?xml version="1.0" encoding="UTF-8"?>
<svg width="60px" height="60px" viewBox="0 0 60 60" version="1.1" xmlns="http://www.w3.org/2000/svg" xmlns:xlink="http://www.w3.org/1999/xlink">
    <!-- Generator: Sketch 51.2 (57519) - http://www.bohemiancoding.com/sketch -->
    <title>message</title>
    <desc>Created with Sketch.</desc>
    <defs></defs>
    <g id="Desktop" stroke="none" stroke-width="1" fill="none" fill-rule="evenodd">
        <g id="remark/2.2.1.1-SMS驗證(輸入)" transform="translate(-690.000000, -393.000000)" fill="#A17D58" fill-rule="nonzero">
            <g id="Group-2" transform="translate(418.000000, 333.000000)">
                <g id="message" transform="translate(272.000000, 60.000000)">
                    <path d="M43.0434783,0 L16.9565217,0 C7.60695652,0 0,7.60695652 0,16.9565217 L0,32.6086957 C0,41.9582609 7.60695652,49.5652174 16.9565217,49.5652174 L28.6956522,49.5652174 L28.6956522,58.6956522 C28.6956522,59.2226087 29.0126087,59.6986957 29.5004348,59.9008696 C29.6621739,59.9673913 29.8317391,60 30,60 C30.3391304,60 30.6730435,59.8669565 30.9221739,59.6178261 L40.9747826,49.5652174 L43.0434783,49.5652174 C52.3930435,49.5652174 60,41.9582609 60,32.6086957 L60,16.9565217 C60,7.60695652 52.3930435,0 43.0434783,0 Z M57.3913043,32.6086957 C57.3913043,40.5195652 50.9543478,46.9565217 43.0434783,46.9565217 L40.4347826,46.9565217 C40.0878261,46.9565217 39.7565217,47.0934783 39.5126087,47.3386957 L31.3043478,55.5469565 L31.3043478,48.2608696 C31.3043478,47.5408696 30.7213043,46.9565217 30,46.9565217 L16.9565217,46.9565217 C9.04565217,46.9565217 2.60869565,40.5195652 2.60869565,32.6086957 L2.60869565,16.9565217 C2.60869565,9.04565217 9.04565217,2.60869565 16.9565217,2.60869565 L43.0434783,2.60869565 C50.9543478,2.60869565 57.3913043,9.04565217 57.3913043,16.9565217 L57.3913043,32.6086957 Z" id="Shape"></path>
                    <path d="M30,28.7394958 C30.6970588,28.7394958 31.2605042,28.1586555 31.2605042,27.4429772 L31.2605042,11.8847539 C31.2605042,11.1690756 30.6970588,10.5882353 30,10.5882353 C29.3029412,10.5882353 28.7394958,11.1690756 28.7394958,11.8847539 L28.7394958,27.4429772 C28.7394958,28.1586555 29.3029412,28.7394958 30,28.7394958 Z" id="Shape"></path>
                    <circle id="Oval" cx="29.7478992" cy="36.302521" r="2.5210084"></circle>
                </g>
            </g>
        </g>
    </g>
</svg>