<?xml version="1.0" encoding="UTF-8"?>
<svg width="50px" height="45px" viewBox="0 0 50 45" version="1.1" xmlns="http://www.w3.org/2000/svg" xmlns:xlink="http://www.w3.org/1999/xlink">
    <!-- Generator: Sketch 50 (54983) - http://www.bohemiancoding.com/sketch -->
    <title>建物類型/icon 5</title>
    <desc>Created with Sketch.</desc>
    <defs></defs>
    <g id="建物類型/icon-5" stroke="none" stroke-width="1" fill="none" fill-rule="evenodd">
        <path d="M48.4366748,38.4872701 L1.56332524,38.4872701 L1.56332524,29.784383 C1.56332524,28.5308807 2.61434457,27.5144354 3.90655259,27.5144354 L46.0934474,27.5144354 C47.3856554,27.5144354 48.4366748,28.5308807 48.4366748,29.784383 L48.4366748,38.4872701 Z M46.0934474,26 L3.90655259,26 C1.75521989,26 0,27.6986235 0,29.784383 L0,39.2427823 C0,39.6657327 0.35386078,40 0.783423119,40 L49.2165769,40 C49.6478997,40 50,39.6657327 50,39.2427823 L50,29.784383 C50,27.6986235 48.2465406,26 46.0934474,26 Z" id="Fill-52" fill="#A17D58"></path>
        <path d="M41.6711383,20 L7.29734868,20 C7.0579205,20 6.83257632,20.1048331 6.6864547,20.2900381 L1.39497773,27.0727373 L3.22002746,27.0727373 L7.67409598,21.5515293 L41.294391,21.5515293 L45.7484596,27.0727373 L46.968487,26.1047787 L42.2820323,20.2900381 C42.1359107,20.1048331 41.9105665,20 41.6711383,20 Z" id="Fill-53" fill="#A17D58"></path>
        <path d="M41.1534128,2.5480349 C40.7321777,2.5480349 40.3854821,2.89398401 40.3854821,3.32379957 L40.3854821,5.46239406 C38.2307692,3.7798234 33.3891658,1 25.0008667,1 C17.3596966,1 11.9512459,4.0366644 9.61625135,5.64759914 L9.61625135,3.32379957 C9.61625135,2.89398401 9.2695558,2.5480349 8.84658722,2.5480349 L5.76966414,2.5480349 C5.34669556,2.5480349 5,2.89398401 5,3.32379957 L5,23.1386681 C5,23.5684837 5.34669556,23.4849449 5.76966414,23.4849449 C6.19263272,23.4849449 6.5375948,22.7572054 6.5375948,22.3273899 L6.5375948,4.10131146 L8.07692308,4.10131146 L8.07692308,7.19912848 C8.07692308,7.49964993 8.25373781,7.77571033 8.52936078,7.91024609 C8.80325027,8.0290569 9.12394366,7.98537645 9.35102925,7.78619363 C9.41343445,7.73552432 15.4320693,2.5480349 25.0008667,2.5480349 C35.9945829,2.5480349 40.5293608,7.65689952 40.5726977,7.7040744 C40.784182,7.9504321 41.1204767,8.0395402 41.4238353,7.92597105 C41.7219935,7.81065468 41.9230769,7.52760541 41.9230769,7.19912848 L41.9230769,4.10131146 L43.4624052,4.10131146 L43.4624052,23.4849449 C43.4624052,23.9147604 43.8073673,24.2589623 44.2303359,24.2589623 C44.6533044,24.2589623 45,23.9147604 45,23.4849449 L45,3.32379957 C45,2.89398401 44.6533044,2.5480349 44.2303359,2.5480349 L41.1534128,2.5480349 Z" id="Fill-54" fill="#A17D58"></path>
        <path d="M20.9854935,19.2008757 L11.0738706,19.2008757 C10.8696525,18.681952 10.5615647,17.7664099 10.5615647,16.8770761 C10.5615647,15.9825007 10.8696525,15.0669586 11.0738706,14.5497821 L20.9854935,14.5497821 C21.1914721,15.0669586 21.4977994,15.9825007 21.4977994,16.8770761 C21.4977994,17.7664099 21.1914721,18.681952 20.9854935,19.2008757 Z M21.4977994,13 L10.5615647,13 C10.26404,13 9.99468329,13.1642385 9.86440618,13.4298156 C9.82919616,13.4979571 9,15.1595611 9,16.8770761 C9,18.5893495 9.82919616,20.2509535 9.86440618,20.319095 C9.99468329,20.5864194 10.26404,20.752405 10.5615647,20.752405 L21.4977994,20.752405 C21.7970846,20.752405 22.0646808,20.5864194 22.1984789,20.319095 C22.230168,20.2509535 23.0611246,18.5893495 23.0611246,16.8770761 C23.0611246,15.1595611 22.230168,13.4979571 22.1984789,13.4298156 C22.0646808,13.1642385 21.7970846,13 21.4977994,13 Z" id="Fill-55" fill="#A17D58"></path>
        <path d="M37.987254,19.2008757 L28.0756311,19.2008757 C27.871413,18.681952 27.5633252,17.7664099 27.5633252,16.8770761 C27.5633252,15.9825007 27.871413,15.0669586 28.0756311,14.5497821 L37.987254,14.5497821 C38.1914721,15.0669586 38.4995599,15.9825007 38.4995599,16.8770761 C38.4995599,17.7664099 38.1914721,18.681952 37.987254,19.2008757 Z M39.1967184,13.4298156 C39.0664413,13.1642385 38.7988451,13 38.4995599,13 L27.5633252,13 C27.26404,13 26.9964438,13.1642385 26.8661667,13.4298156 C26.8309567,13.4979571 26,15.1595611 26,16.8770761 C26,18.5893495 26.8309567,20.2509535 26.8661667,20.319095 C26.9964438,20.5864194 27.26404,20.752405 27.5633252,20.752405 L38.4995599,20.752405 C38.7988451,20.752405 39.0664413,20.5864194 39.1967184,20.319095 C39.2319285,20.2509535 40.0628851,18.5893495 40.0628851,16.8770761 C40.0628851,15.1595611 39.2319285,13.4979571 39.1967184,13.4298156 Z" id="Fill-56" fill="#A17D58"></path>
        <path d="M6.90655259,42.6973911 C6.90655259,43.2587253 6.37840217,43.7160521 5.73229816,43.7160521 C5.08795465,43.7160521 4.56156473,43.2587253 4.56156473,42.6973911 L4.56156473,39.9824911 L6.90655259,39.9824911 L6.90655259,42.6973911 Z M7.6864547,38.6258059 L3.77990212,38.6258059 C3.35033978,38.6258059 3,38.9271215 3,39.3033837 L3,42.6973911 C3,44.0097202 4.22530897,45.0727373 5.73229816,45.0727373 C7.24280835,45.0727373 8.46811732,44.0097202 8.46811732,42.6973911 L8.46811732,39.3033837 C8.46811732,38.9271215 8.11601704,38.6258059 7.6864547,38.6258059 Z" id="Fill-57" fill="#A17D58"></path>
        <path d="M44.9065526,42.6973911 C44.9065526,43.2587253 44.3801627,43.7160521 43.7358192,43.7160521 C43.0897152,43.7160521 42.5633252,43.2587253 42.5633252,42.6973911 L42.5633252,39.9824911 L44.9065526,39.9824911 L44.9065526,42.6973911 Z M45.6882152,38.6258059 L41.7816626,38.6258059 C41.3521003,38.6258059 41,38.9271215 41,39.3033837 L41,42.6973911 C41,44.0097202 42.225309,45.0727373 43.7358192,45.0727373 C45.2428084,45.0727373 46.4681173,44.0097202 46.4681173,42.6973911 L46.4681173,39.3033837 C46.4681173,38.9271215 46.1177775,38.6258059 45.6882152,38.6258059 Z" id="Fill-58" fill="#A17D58"></path>
    </g>
</svg>