<?xml version="1.0" encoding="UTF-8"?>
<svg width="40px" height="45px" viewBox="0 0 40 45" version="1.1" xmlns="http://www.w3.org/2000/svg" xmlns:xlink="http://www.w3.org/1999/xlink">
    <!-- Generator: Sketch 50 (54983) - http://www.bohemiancoding.com/sketch -->
    <title>建物類型/icon 1</title>
    <desc>Created with Sketch.</desc>
    <defs></defs>
    <g id="建物類型/icon-1" stroke="none" stroke-width="1" fill="none" fill-rule="evenodd">
        <g id="Group" transform="translate(0.000000, 2.000000)" fill="#A17D58">
            <path d="M31.4285714,41.5669604 L31.4285714,9.31679094 C31.4285714,8.88633676 31.1427896,8.59959327 30.713779,8.59959327 L17.8576496,8.59959327 L5.0001689,8.59959327 C4.57183394,8.59959327 4.28605209,8.88633676 4.28605209,9.31679094 L4.28605209,41.5669604 L1.42958484,41.5669604 L1.42958484,1.43303959 L38.5704152,1.43303959 L38.5704152,41.5669604 L31.4285714,41.5669604 Z M18.5717664,41.5669604 L30.0003378,41.5669604 L30.0003378,10.0326329 L18.5717664,10.0326329 L18.5717664,41.5669604 Z M5.71428571,41.5669604 L17.1421815,41.5669604 L17.1421815,10.0326329 L5.71428571,10.0326329 L5.71428571,41.5669604 Z M39.2852076,0 L0.71479242,0 C0.286457454,0 0,0.286743493 0,0.715841912 L0,42.2834802 C0,42.7132565 0.286457454,43 0.71479242,43 L5.0001689,43 L17.8576496,43 L30.713779,43 L39.2852076,43 C39.7142182,43 40,42.7132565 40,42.2834802 L40,0.715841912 C40,0.286743493 39.7142182,0 39.2852076,0 Z" id="Fill-1"></path>
            <path d="M20.9373374,5.66687687 L14.0626626,5.66687687 C13.6503902,5.66687687 13.3753251,5.40012612 13.3753251,4.99968469 C13.3753251,4.59987388 13.6503902,4.33375374 14.0626626,4.33375374 L20.9373374,4.33375374 C21.3502601,4.33375374 21.6253251,4.59987388 21.6253251,4.99968469 C21.6253251,5.40012612 21.3502601,5.66687687 20.9373374,5.66687687 M20.9373374,3 L14.0626626,3 C12.8941239,3 12,3.86709759 12,4.99968469 C12,6.13290241 12.8941239,7 14.0626626,7 L20.9373374,7 C22.1058761,7 23,6.13290241 23,4.99968469 C23,3.86709759 22.1058761,3 20.9373374,3" id="Fill-4"></path>
            <path d="M34.1329471,25.7749734 L35.0000788,24.7996808 L35.86658,25.7749734 C36.0002759,25.9246365 36.1333412,25.9991134 36.3332545,25.9991134 C36.5337984,25.9991134 36.6668637,25.9246365 36.7999291,25.7749734 C37.0666903,25.4742286 37.0666903,25.0245301 36.7999291,24.7252039 L35.4667534,23.2250266 C35.1993615,22.9249911 34.8001655,22.9249911 34.5334043,23.2250266 L33.199598,24.7252039 C32.9334673,25.0245301 32.9334673,25.4742286 33.199598,25.7749734 C33.4663592,26.0750089 33.8661858,26.0750089 34.1329471,25.7749734" id="Fill-6"></path>
            <path d="M35.8666929,29.2255852 L35.0001577,30.2002838 L34.1329917,29.2255852 C33.8668506,28.9255143 33.4663776,28.9255143 33.1996058,29.2255852 C32.9334647,29.5256562 32.9334647,29.9754079 33.1996058,30.2747694 L34.5334647,31.7751241 C34.6665353,31.9255143 34.8002365,32 35.0001577,32 C35.1994482,32 35.3331494,31.9255143 35.4668506,31.7751241 L36.7994482,30.2747694 C37.0668506,29.9754079 37.0668506,29.5256562 36.7994482,29.2255852 C36.5339377,28.9248049 36.1334647,28.9248049 35.8666929,29.2255852" id="Fill-8"></path>
        </g>
    </g>
</svg>