<?xml version="1.0" encoding="UTF-8"?>
<svg width="50px" height="45px" viewBox="0 0 50 45" version="1.1" xmlns="http://www.w3.org/2000/svg" xmlns:xlink="http://www.w3.org/1999/xlink">
    <!-- Generator: Sketch 50 (54983) - http://www.bohemiancoding.com/sketch -->
    <title>建物類型/icon 2</title>
    <desc>Created with Sketch.</desc>
    <defs></defs>
    <g id="建物類型/icon-2" stroke="none" stroke-width="1" fill="none" fill-rule="evenodd">
        <path d="M39.1976923,4.79646154 C38.7715385,4.79646154 38.4269231,5.14107692 38.4269231,5.56723077 L38.4269231,15.2233846 L29.6361538,15.2233846 C29.2107692,15.2233846 28.8653846,15.568 28.8653846,15.9941538 L28.8653846,23.9472308 L19.8846154,23.9472308 C19.4584615,23.9472308 19.1138462,24.2926154 19.1138462,24.718 L19.1138462,33.9187692 L10.51,33.9187692 C10.0838462,33.9187692 9.73923077,34.2641538 9.73923077,34.6895385 L9.73923077,43.258 L0.770769231,43.258 C0.344615385,43.258 0,43.6026154 0,44.0287692 C0,44.4549231 0.344615385,44.7995385 0.770769231,44.7995385 L10.51,44.7995385 C10.9361538,44.7995385 11.2807692,44.4549231 11.2807692,44.0287692 L11.2807692,35.4603077 L19.8846154,35.4603077 C20.31,35.4603077 20.6553846,35.1156923 20.6553846,34.6895385 L20.6553846,25.4887692 L29.6361538,25.4887692 C30.0623077,25.4887692 30.4069231,25.1441538 30.4069231,24.718 L30.4069231,16.7649231 L39.1976923,16.7649231 C39.6238462,16.7649231 39.9684615,16.4195385 39.9684615,15.9941538 L39.9684615,6.338 L48.4630769,6.338 C48.8892308,6.338 49.2338462,5.99338462 49.2338462,5.56723077 C49.2338462,5.14107692 48.8892308,4.79646154 48.4630769,4.79646154 L39.1976923,4.79646154 Z" id="Fill-1" fill="#A17D58"></path>
        <path d="M6.65614391,18.2738533 L17.4346587,7.49533853 L17.4346587,14.739382 C17.4346587,15.1718509 17.7848604,15.5220527 18.2173293,15.5220527 C18.6497983,15.5220527 19,15.1718509 19,14.739382 L19,5.6824408 C19,5.24997186 18.6497983,4.89977014 18.2173293,4.89977014 L9.16038815,4.89977014 C8.72791921,4.89977014 8.37771748,5.24997186 8.37771748,5.6824408 C8.37771748,6.11490974 8.72791921,6.46511147 9.16038815,6.46511147 L16.4051864,6.46511147 L5.62667159,17.2436262 C5.34213269,17.5274104 5.34213269,17.9893144 5.62591685,18.2730985 C5.76856367,18.4149906 5.95498571,18.4866914 6.14140775,18.4866914 C6.32782979,18.4866914 6.51425183,18.4149906 6.65614391,18.2738533 Z" id="Fill-4" fill="#A17D58"></path>
    </g>
</svg>