<?xml version="1.0" encoding="UTF-8"?>
<svg width="42px" height="45px" viewBox="0 0 42 45" version="1.1" xmlns="http://www.w3.org/2000/svg" xmlns:xlink="http://www.w3.org/1999/xlink">
    <!-- Generator: Sketch 50 (54983) - http://www.bohemiancoding.com/sketch -->
    <title>建物類型/icon 3</title>
    <desc>Created with Sketch.</desc>
    <defs></defs>
    <g id="建物類型/icon-3" stroke="none" stroke-width="1" fill="none" fill-rule="evenodd" stroke-linejoin="round">
        <path d="M4,44 L4,19.1090909 L10.6,19.1090909 M6.64,19.1090909 L6.64,15.0727273 L10.6,15.0727273 M13.24,44 L13.24,7 L37,7 L37,44" id="Stroke-9" stroke="#A17D58" stroke-width="1.5" stroke-linecap="square"></path>
        <polyline id="Stroke-10" stroke="#A17D58" stroke-width="2" stroke-linecap="round" points="28 43 28 36 22 36 22 43"></polyline>
        <path d="M17.2580645,20.6451613 L17.2580645,17.9354839 L19.9677419,17.9354839 L17.2580645,20.6451613 Z M24.0322581,20.6451613 L24.0322581,17.9354839 L26.7419355,17.9354839 L24.0322581,20.6451613 Z M30.8064516,20.6451613 L30.8064516,17.9354839 L33.516129,17.9354839 L30.8064516,20.6451613 Z M17.2580645,27.4193548 L17.2580645,24.7096774 L19.9677419,24.7096774 L17.2580645,27.4193548 Z M24.0322581,27.4193548 L24.0322581,24.7096774 L26.7419355,24.7096774 L24.0322581,27.4193548 Z M30.8064516,27.4193548 L30.8064516,24.7096774 L33.516129,24.7096774 L30.8064516,27.4193548 Z M17.2580645,34.1935484 L17.2580645,31.483871 L19.9677419,31.483871 L17.2580645,34.1935484 Z M30.8064516,34.1935484 L30.8064516,31.483871 L33.516129,31.483871 L30.8064516,34.1935484 Z M17.2580645,13.8709677 L17.2580645,11.1612903 L19.9677419,11.1612903 L17.2580645,13.8709677 Z M24.0322581,13.8709677 L24.0322581,11.1612903 L26.7419355,11.1612903 L24.0322581,13.8709677 Z M30.8064516,13.8709677 L30.8064516,11.1612903 L33.516129,11.1612903 L30.8064516,13.8709677 Z M17.9354839,6.74193548 L32.8387097,6.74193548 L32.8387097,2 L17.9354839,2 L17.9354839,6.74193548 Z" id="Stroke-11" stroke="#A17D58" stroke-width="1.5" stroke-linecap="square"></path>
        <path d="M2,44 L39.5,44" id="Stroke-12" stroke="#A17D58" stroke-width="1.5" stroke-linecap="round"></path>
    </g>
</svg>