<?xml version="1.0" encoding="UTF-8"?>
<svg width="65px" height="45px" viewBox="0 0 65 45" version="1.1" xmlns="http://www.w3.org/2000/svg" xmlns:xlink="http://www.w3.org/1999/xlink">
    <!-- Generator: Sketch 50 (54983) - http://www.bohemiancoding.com/sketch -->
    <title>建物類型/icon 6</title>
    <desc>Created with Sketch.</desc>
    <defs></defs>
    <g id="建物類型/icon-6" stroke="none" stroke-width="1" fill="none" fill-rule="evenodd">
        <path d="M39.1923659,21.586583 L39.1877179,19.3047192 C39.1877179,19.075258 39.0808127,18.8633251 38.8948907,18.7310663 L22.391211,6.74968789 C22.2750097,6.660453 22.1324695,6.62220947 21.9961266,6.62220947 C21.8582344,6.62220947 21.7172436,6.66523344 21.5948449,6.74968789 L5.10046128,18.833049 C4.92073665,18.9605274 4.81228212,19.1772408 4.81228212,19.4067019 L4.81228212,21.5818025 L1.39596465,21.5818025 L1.37582309,17.1089033 L21.0804606,2.69268705 C21.5359696,2.35646271 22.3354343,2.26882129 22.9148914,2.69746749 L42.6210782,17.1136838 L42.6257263,21.5818025 L39.1923659,21.586583 Z M43.9953519,16.7455898 C43.9953519,16.5161287 43.8884468,16.3041958 43.7087221,16.1719369 L23.7190042,1.54378775 C22.8002394,0.868152104 21.3268073,0.770949806 20.2809958,1.54378775 L0.288179161,16.1719369 C0.106905173,16.3041958 0,16.5209091 0,16.7503703 L0.0263389556,22.2877143 C0.0263389556,22.6765235 0.334659671,22.9952196 0.712701151,22.9952196 L5.50019367,22.9952196 C5.87823515,22.9952196 6.18655586,22.6765235 6.18655586,22.2877143 L6.18655586,19.7700154 L21.9961266,8.19497453 L37.8118948,19.6712197 L37.8165428,22.2924947 C37.8165428,22.6813039 38.1264129,23 38.5060037,23 L43.3136378,22.9952196 C43.6916793,22.9952196 44,22.6765235 44,22.2877143 L43.9953519,16.7455898 Z" id="Fill-30" fill="#A17D58"></path>
        <path d="M35.5459266,2 L30.4320026,2.01328658 C29.6686141,2.01328658 29.0571243,2.68794981 29,3.53976748 L30.1308017,4.45211294 L30.1308017,3.66672818 C30.1308017,3.47776342 30.2632262,3.32275328 30.4320026,3.32275328 L35.5459266,3.31094298 C35.7121065,3.31094298 35.8471276,3.46742942 35.8471276,3.65344159 L35.8471276,9.07879683 L36.9857189,10 C36.9896138,9.97195054 37,9.9424248 37,9.91585163 L37,3.65344159 C37,2.74109614 36.3482636,2 35.5459266,2" id="Fill-32" fill="#A17D58"></path>
        <path d="M38.5583531,22 L38.5583531,43.0540054 C38.5583531,43.1971947 38.4869247,43.2938044 38.4463404,43.340384 C38.3700419,43.4266427 38.2677694,43.469772 38.1541334,43.469772 L5.8279174,43.469772 C5.60713874,43.469772 5.42207428,43.2679268 5.42207428,43.0436544 L5.42207428,22 L4,22 L4,43.0384788 C4,44.120162 4.81006286,45 5.8279174,45 L38.1541334,45 C38.6541321,45 39.1184166,44.7947045 39.4690651,44.4168917 C39.8164668,44.0477048 40.004778,43.5612061 39.9999078,43.0488299 L40,22 L38.5583531,22" id="Fill-33" fill="#A17D58"></path>
        <path d="M63.253458,26.3606233 C62.9430626,28.9181302 62.3476103,31.1397069 61.5779565,32.6165324 C60.8890689,33.9539152 59.7440901,34.7462036 58.5246797,34.7462036 L58.4724193,34.7462036 C57.2498417,34.7462036 56.1096138,33.9539152 55.4175589,32.6165324 C54.6447378,31.131784 54.0524528,28.9070382 53.7468084,26.3606233 C52.7887002,18.368018 53.7499757,9.55460188 56.248975,4.28429949 C56.8665984,2.97702364 57.9498149,1.69510102 58.4945904,1.41938466 C59.0472842,1.69510102 60.128917,2.97702364 60.7512913,4.28905322 C63.2518743,9.55777103 64.2083988,18.3711871 63.253458,26.3606233 Z M62.000791,3.69325234 C61.5906257,2.829658 60.092493,0.295919715 58.6260333,0.0154496237 C58.5436835,-0.00514987455 58.4502482,-0.00514987455 58.3678984,0.0154496237 C56.9030224,0.295919715 55.4048897,2.829658 54.996308,3.69325234 C52.3896205,9.18698006 51.3871702,18.2903737 52.3722004,26.5254193 C52.6952649,29.2350456 53.3429777,31.6261719 54.1902303,33.2551169 C55.0058099,34.8317708 56.3329084,35.8443153 57.8342084,36.0788327 L57.8342084,45 L59.2167347,45 L59.2167347,36.0693252 C60.689529,35.8237158 61.9960401,34.8127558 62.8068687,33.2551169 C63.8900852,31.1777367 64.3952695,28.4475109 64.6264823,26.5254193 C65.6146798,18.2903737 64.6090622,9.18698006 62.000791,3.69325234 Z" id="Fill-191" fill="#A17D58"></path>
        <path d="M53.9623524,34.5363307 C53.7161618,34.5985959 53.4535585,34.6328418 53.1836607,34.623502 C52.3630255,34.6328418 51.1958999,34.2109949 50.4646227,33.0077197 C49.7570528,31.8433602 49.2117863,30.1014908 48.9309467,28.0965509 C48.0391898,21.787528 48.9291231,14.7266527 51.2378435,10.5704496 C51.5533321,10.0038362 51.9891806,9.45434564 52.3940273,9.04339522 C52.6037452,8.33824167 52.8444648,7.66110746 53.0961263,7.00109619 C53.0742427,7.00265282 53.0560064,6.99798292 53.0359464,7.00109619 C51.613512,7.23614737 50.1874304,9.28622956 49.7971728,9.98982648 C47.3644453,14.3624012 46.4270975,21.7143664 47.3480326,28.2568838 C47.6489321,30.4221566 48.2562022,32.3305855 49.0513065,33.6319285 C49.9120617,35.0562452 51.2487853,35.7178131 52.4177345,35.9123919 L52.4177345,45 L54.0134141,45 L54.0134141,35.9030522 C54.3489627,35.8423436 54.6845114,35.7582855 55,35.6259719 C54.6206842,35.3021928 54.2705465,34.9410546 53.9623524,34.5363307" id="Fill-193" fill="#A17D58"></path>
        <path d="M18.7257399,27.5385305 C18.7257399,27.7292115 18.5506726,27.8860215 18.3268161,27.8860215 L13.6717489,27.8860215 C13.4493274,27.8860215 13.2742601,27.7292115 13.2742601,27.5385305 L13.2742601,23.4602151 C13.2742601,23.2657706 13.4493274,23.112724 13.6717489,23.112724 L18.3268161,23.112724 C18.5506726,23.112724 18.7257399,23.2657706 18.7257399,23.4602151 L18.7257399,27.5385305 Z M18.3268161,22 L13.6717489,22 C12.7490583,22 12,22.6560932 12,23.4602151 L12,27.5385305 C12,28.3413978 12.7490583,29 13.6717489,29 L18.3268161,29 C19.2509417,29 20,28.3413978 20,27.5385305 L20,23.4602151 C20,22.6560932 19.2509417,22 18.3268161,22 Z" id="Fill-34" fill="#A17D58"></path>
        <path d="M30.7255113,27.5385305 C30.7255113,27.7292115 30.5504126,27.8860215 30.3279512,27.8860215 L25.6706136,27.8860215 C25.4481521,27.8860215 25.2730535,27.7292115 25.2730535,27.5385305 L25.2730535,23.4602151 C25.2730535,23.2657706 25.4481521,23.112724 25.6706136,23.112724 L30.3279512,23.112724 C30.5504126,23.112724 30.7255113,23.2657706 30.7255113,23.4602151 L30.7255113,27.5385305 Z M30.3279512,22 L25.6706136,22 C24.7463222,22 24,22.6560932 24,23.4602151 L24,27.5385305 C24,28.3413978 24.7463222,29 25.6706136,29 L30.3279512,29 C31.2522426,29 32,28.3413978 32,27.5385305 L32,23.4602151 C32,22.6560932 31.2522426,22 30.3279512,22 Z" id="Fill-35" fill="#A17D58"></path>
        <path d="M18.7257399,37.3287868 C18.7257399,37.5513281 18.5506726,37.7264896 18.3268161,37.7264896 L13.6717489,37.7264896 C13.4493274,37.7264896 13.2742601,37.5513281 13.2742601,37.3287868 L13.2742601,32.672649 C13.2742601,32.4458004 13.4493274,32.2749462 13.6717489,32.2749462 L18.3268161,32.2749462 C18.5506726,32.2749462 18.7257399,32.4458004 18.7257399,32.672649 L18.7257399,37.3287868 Z M18.3268161,31 L13.6717489,31 C12.7490583,31 12,31.7494616 12,32.672649 L12,37.3287868 C12,38.2491027 12.7490583,39 13.6717489,39 L18.3268161,39 C19.2509417,39 20,38.2491027 20,37.3287868 L20,32.672649 C20,31.7494616 19.2509417,31 18.3268161,31 Z" id="Fill-36" fill="#A17D58"></path>
        <path d="M30.7255113,37.3287868 C30.7255113,37.5513281 30.5504126,37.7264896 30.3279512,37.7264896 L25.6706136,37.7264896 C25.4481521,37.7264896 25.2730535,37.5513281 25.2730535,37.3287868 L25.2730535,32.672649 C25.2730535,32.4458004 25.4481521,32.2749462 25.6706136,32.2749462 L30.3279512,32.2749462 C30.5504126,32.2749462 30.7255113,32.4458004 30.7255113,32.672649 L30.7255113,37.3287868 Z M30.3279512,31 L25.6706136,31 C24.7463222,31 24,31.7494616 24,32.672649 L24,37.3287868 C24,38.2491027 24.7463222,39 25.6706136,39 L30.3279512,39 C31.2522426,39 32,38.2491027 32,37.3287868 L32,32.672649 C32,31.7494616 31.2522426,31 30.3279512,31 Z" id="Fill-37" fill="#A17D58"></path>
    </g>
</svg>